<svg width="505" height="101" viewBox="0 0 505 101" fill="none" xmlns="http://www.w3.org/2000/svg">
<path fill-rule="evenodd" clip-rule="evenodd" d="M61.9914 64.8991V90.7631V96.7651C61.9914 98.9742 60.2005 100.765 57.9914 100.765H51.9918H21.5894H15.5914C13.3822 100.765 11.5914 98.9742 11.5914 96.7651V90.7631L11.5914 64.8991L11.5914 50.485C11.5914 47.3305 15.0723 45.4173 17.7354 47.1081L21.5894 49.5551L29.2754 54.4351L34.7931 57.9384C36.1142 58.7772 37.8031 58.7685 39.1155 57.9163L51.9918 49.5551L55.813 47.0738C58.4741 45.3458 61.9914 47.2556 61.9914 50.4286V64.8991ZM51.699 83.8823C51.572 82.8664 50.6959 82.1743 49.6721 82.1743H40.6214L48.6246 75.2935C49.5355 74.5127 50.3326 73.6994 51.0158 72.8535C51.6665 72.0076 51.9918 70.9178 51.9918 69.5839C51.9918 68.9658 51.8942 68.3802 51.699 67.8271C51.5038 67.274 51.211 66.786 50.8206 66.3631C50.4302 65.9076 49.9585 65.5498 49.4054 65.2895C49.2962 65.2381 49.1838 65.1918 49.0682 65.1505C48.1043 64.8065 47.0876 65.2909 46.348 65.9983C46.0224 66.3097 45.6751 66.6428 45.3062 66.9975C44.4603 67.7783 43.5819 68.6079 42.671 69.4863C41.7275 70.3322 40.7678 71.2106 39.7918 72.1215C38.8158 72.9999 37.8723 73.8458 36.9614 74.6591L30.8614 68.5591C29.9179 67.6156 29.0721 66.9324 28.3238 66.5095C27.5755 66.0866 26.7785 65.8751 25.9326 65.8751C24.7939 65.8751 23.8179 66.3631 23.0046 67.3391C22.412 68 22.027 68.9722 21.8496 70.2557C21.6911 71.402 22.2369 72.5088 23.1098 73.2685L33.399 82.2231H25.6398C24.7939 82.2231 24.1107 82.3207 23.5902 82.5159C23.0696 82.7111 22.663 83.0039 22.3702 83.3943C22.0774 83.7847 21.8822 84.2727 21.7846 84.8583C21.6545 85.4114 21.5894 86.062 21.5894 86.8103C21.5894 87.526 21.6545 88.2743 21.7846 89.0551V89.0551C21.9085 90.0466 22.7549 90.7631 23.7541 90.7631H47.795C48.6409 90.7631 49.3241 90.6655 49.8446 90.4703C50.3651 90.2751 50.7718 89.9823 51.0646 89.5919C51.3574 89.2015 51.5526 88.7298 51.6502 88.1767C51.7803 87.5911 51.8454 86.9242 51.8454 86.1759C51.8454 85.4276 51.7966 84.6631 51.699 83.8823V83.8823Z" fill="white"/>
<path d="M34.7931 45.5584C36.1142 46.3972 37.8031 46.3885 39.1155 45.5363L67.935 26.8223C70.3638 25.2452 70.3638 21.6899 67.935 20.1128L39.1155 1.39879C37.8031 0.546548 36.1142 0.537918 34.7931 1.37671L5.31854 20.0907C2.84392 21.6619 2.84392 25.2732 5.31854 26.8444L34.7931 45.5584Z" fill="white"/>
<path d="M107.052 67.881V80.7668C106.624 80.8834 105.944 81 105.011 81.1166C104.078 81.2332 103.165 81.2915 102.271 81.2915C101.377 81.2915 100.58 81.2138 99.8802 81.0583C99.2194 80.9417 98.6557 80.7085 98.1893 80.3586C97.7228 80.0088 97.373 79.5229 97.1398 78.901C96.9065 78.279 96.7899 77.4627 96.7899 76.4521V45.6663C97.2175 45.5885 97.8977 45.4913 98.8306 45.3747C99.7636 45.2192 100.658 45.1415 101.513 45.1415C102.407 45.1415 103.184 45.2192 103.845 45.3747C104.545 45.4913 105.128 45.7246 105.594 46.0744C106.061 46.4242 106.41 46.9101 106.644 47.5321C106.877 48.154 106.994 48.9703 106.994 49.9809V59.2517L119.121 45.3164C121.765 45.3164 123.65 45.8217 124.777 46.8324C125.943 47.8042 126.526 48.9703 126.526 50.3308C126.526 51.3414 126.274 52.2938 125.768 53.1878C125.263 54.0818 124.447 55.0925 123.319 56.2197L116.031 63.5081C117.003 64.5964 118.013 65.7237 119.063 66.8898C120.151 68.056 121.201 69.2027 122.212 70.3299C123.261 71.4183 124.252 72.4678 125.185 73.4785C126.157 74.4891 126.993 75.3637 127.692 76.1023C127.692 76.9574 127.537 77.7154 127.226 78.3762C126.915 79.037 126.487 79.6006 125.943 80.0671C125.438 80.5335 124.855 80.8834 124.194 81.1166C123.533 81.3498 122.833 81.4665 122.095 81.4665C120.501 81.4665 119.199 81.0777 118.188 80.3003C117.178 79.484 116.206 78.5317 115.273 77.4433L107.052 67.881ZM145.75 81.9329C143.457 81.9329 141.319 81.6219 139.336 81C137.393 80.3392 135.682 79.3674 134.205 78.0847C132.767 76.8019 131.62 75.1888 130.765 73.2452C129.949 71.3017 129.541 69.0277 129.541 66.4234C129.541 63.8579 129.949 61.6617 130.765 59.8347C131.62 57.9689 132.728 56.453 134.089 55.2868C135.449 54.0818 137.004 53.2072 138.753 52.663C140.502 52.08 142.291 51.7884 144.117 51.7884C146.178 51.7884 148.043 52.0994 149.715 52.7213C151.425 53.3433 152.883 54.1984 154.088 55.2868C155.332 56.3752 156.284 57.6774 156.945 59.1934C157.645 60.7093 157.994 62.3614 157.994 64.1494C157.994 65.471 157.625 66.4817 156.887 67.1814C156.148 67.881 155.118 68.3281 153.796 68.5224L139.395 70.6798C139.822 71.9625 140.697 72.9343 142.018 73.5951C143.34 74.217 144.856 74.528 146.566 74.528C148.16 74.528 149.657 74.3336 151.056 73.9449C152.494 73.5173 153.66 73.0314 154.554 72.4873C155.176 72.876 155.701 73.4202 156.129 74.1198C156.556 74.8195 156.77 75.5581 156.77 76.3355C156.77 78.0847 155.954 79.3869 154.321 80.242C153.077 80.9028 151.678 81.3498 150.123 81.5831C148.568 81.8163 147.111 81.9329 145.75 81.9329ZM144.117 59.0185C143.185 59.0185 142.368 59.1739 141.669 59.4849C141.008 59.7959 140.464 60.204 140.036 60.7093C139.608 61.1758 139.278 61.72 139.045 62.3419C138.85 62.925 138.734 63.5275 138.695 64.1494L148.665 62.5168C148.549 61.7394 148.121 60.962 147.383 60.1846C146.644 59.4072 145.556 59.0185 144.117 59.0185ZM172.678 80.9417C172.289 81.0583 171.667 81.1749 170.812 81.2915C169.996 81.4081 169.14 81.4665 168.246 81.4665C167.391 81.4665 166.614 81.4081 165.914 81.2915C165.253 81.1749 164.69 80.9417 164.223 80.5919C163.757 80.242 163.387 79.7756 163.115 79.1925C162.882 78.5706 162.766 77.7737 162.766 76.8019V59.31C162.766 58.416 162.921 57.658 163.232 57.036C163.582 56.3752 164.068 55.7922 164.69 55.2868C165.312 54.7815 166.07 54.3345 166.964 53.9458C167.897 53.5182 168.888 53.1489 169.937 52.838C170.987 52.527 172.075 52.2938 173.202 52.1383C174.33 51.9439 175.457 51.8468 176.584 51.8468C178.45 51.8468 179.927 52.216 181.015 52.9546C182.104 53.6543 182.648 54.8204 182.648 56.453C182.648 56.9972 182.57 57.5414 182.415 58.0855C182.259 58.5909 182.065 59.0573 181.832 59.4849C181.015 59.4849 180.18 59.5238 179.325 59.6015C178.469 59.6793 177.634 59.7959 176.817 59.9514C176.001 60.1068 175.224 60.2818 174.485 60.4761C173.785 60.6316 173.183 60.826 172.678 61.0592V80.9417ZM198.011 74.7029C198.672 74.7029 199.391 74.6446 200.168 74.528C200.985 74.3725 201.587 74.1781 201.976 73.9449V69.2804L197.778 69.6302C196.689 69.708 195.795 69.9412 195.096 70.3299C194.396 70.7186 194.046 71.3017 194.046 72.0791C194.046 72.8565 194.338 73.4979 194.921 74.0032C195.543 74.4697 196.573 74.7029 198.011 74.7029ZM197.544 51.7884C199.643 51.7884 201.548 52.0022 203.258 52.4298C205.008 52.8574 206.485 53.5182 207.69 54.4122C208.934 55.2674 209.886 56.3752 210.547 57.7357C211.208 59.0573 211.538 60.6316 211.538 62.4585V75.5192C211.538 76.5298 211.246 77.3656 210.663 78.0264C210.119 78.6483 209.458 79.1925 208.681 79.659C206.154 81.1749 202.598 81.9329 198.011 81.9329C195.951 81.9329 194.085 81.7385 192.413 81.3498C190.781 80.9611 189.362 80.3781 188.157 79.6006C186.991 78.8232 186.078 77.832 185.417 76.627C184.795 75.422 184.484 74.0227 184.484 72.4289C184.484 69.7468 185.281 67.6867 186.874 66.2485C188.468 64.8102 190.936 63.9162 194.279 63.5664L201.917 62.7501V62.3419C201.917 61.2147 201.412 60.4178 200.401 59.9514C199.43 59.446 198.011 59.1934 196.145 59.1934C194.668 59.1934 193.23 59.3489 191.83 59.6598C190.431 59.9708 189.168 60.3595 188.04 60.826C187.535 60.4761 187.108 59.9514 186.758 59.2517C186.408 58.5131 186.233 57.7551 186.233 56.9777C186.233 55.9671 186.466 55.1702 186.933 54.5872C187.438 53.9652 188.196 53.4405 189.207 53.0129C190.334 52.5853 191.656 52.2743 193.171 52.08C194.726 51.8856 196.184 51.7884 197.544 51.7884ZM227.686 80.9417C227.258 81.0194 226.617 81.1166 225.762 81.2332C224.945 81.3887 224.11 81.4665 223.254 81.4665C222.399 81.4665 221.622 81.4081 220.922 81.2915C220.261 81.1749 219.698 80.9417 219.231 80.5919C218.765 80.242 218.396 79.7756 218.123 79.1925C217.89 78.5706 217.774 77.7737 217.774 76.8019V42.9842C218.201 42.9064 218.823 42.8092 219.639 42.6926C220.495 42.5371 221.35 42.4594 222.205 42.4594C223.06 42.4594 223.818 42.5177 224.479 42.6343C225.179 42.7509 225.762 42.9842 226.228 43.334C226.695 43.6838 227.044 44.1697 227.278 44.7917C227.55 45.3747 227.686 46.1522 227.686 47.1239V80.9417ZM246.068 74.7029C246.729 74.7029 247.448 74.6446 248.226 74.528C249.042 74.3725 249.644 74.1781 250.033 73.9449V69.2804L245.835 69.6302C244.747 69.708 243.853 69.9412 243.153 70.3299C242.453 70.7186 242.103 71.3017 242.103 72.0791C242.103 72.8565 242.395 73.4979 242.978 74.0032C243.6 74.4697 244.63 74.7029 246.068 74.7029ZM245.602 51.7884C247.701 51.7884 249.605 52.0022 251.316 52.4298C253.065 52.8574 254.542 53.5182 255.747 54.4122C256.991 55.2674 257.943 56.3752 258.604 57.7357C259.265 59.0573 259.595 60.6316 259.595 62.4585V75.5192C259.595 76.5298 259.304 77.3656 258.721 78.0264C258.177 78.6483 257.516 79.1925 256.738 79.659C254.212 81.1749 250.655 81.9329 246.068 81.9329C244.008 81.9329 242.142 81.7385 240.471 81.3498C238.838 80.9611 237.419 80.3781 236.214 79.6006C235.048 78.8232 234.135 77.832 233.474 76.627C232.852 75.422 232.541 74.0227 232.541 72.4289C232.541 69.7468 233.338 67.6867 234.932 66.2485C236.525 64.8102 238.994 63.9162 242.337 63.5664L249.975 62.7501V62.3419C249.975 61.2147 249.469 60.4178 248.459 59.9514C247.487 59.446 246.068 59.1934 244.202 59.1934C242.725 59.1934 241.287 59.3489 239.888 59.6598C238.488 59.9708 237.225 60.3595 236.098 60.826C235.592 60.4761 235.165 59.9514 234.815 59.2517C234.465 58.5131 234.29 57.7551 234.29 56.9777C234.29 55.9671 234.524 55.1702 234.99 54.5872C235.495 53.9652 236.253 53.4405 237.264 53.0129C238.391 52.5853 239.713 52.2743 241.229 52.08C242.784 51.8856 244.241 51.7884 245.602 51.7884ZM288.115 66.9481C286.405 66.3651 284.85 65.782 283.451 65.1989C282.052 64.577 280.847 63.8385 279.836 62.9833C278.825 62.1281 278.028 61.1175 277.445 59.9514C276.901 58.7464 276.629 57.2887 276.629 55.5784C276.629 52.2743 277.892 49.6311 280.419 47.6487C282.984 45.6663 286.561 44.6751 291.147 44.6751C292.819 44.6751 294.374 44.7917 295.812 45.0249C297.25 45.2581 298.475 45.6274 299.485 46.1327C300.535 46.5992 301.351 47.2211 301.934 47.9985C302.517 48.7371 302.809 49.6117 302.809 50.6223C302.809 51.633 302.575 52.5076 302.109 53.2461C301.643 53.9458 301.079 54.5483 300.418 55.0536C299.563 54.5094 298.416 54.043 296.978 53.6543C295.54 53.2267 293.965 53.0129 292.255 53.0129C290.506 53.0129 289.223 53.2655 288.407 53.7709C287.591 54.2373 287.182 54.8398 287.182 55.5784C287.182 56.1614 287.435 56.6473 287.94 57.036C288.446 57.3859 289.204 57.7163 290.214 58.0272L293.305 59.0185C296.959 60.1846 299.757 61.6811 301.701 63.5081C303.683 65.2961 304.674 67.745 304.674 70.8547C304.674 74.1587 303.372 76.8408 300.768 78.901C298.164 80.9223 294.335 81.9329 289.282 81.9329C287.493 81.9329 285.822 81.7774 284.267 81.4665C282.751 81.1944 281.41 80.7862 280.244 80.242C279.117 79.659 278.223 78.9593 277.562 78.143C276.94 77.2878 276.629 76.316 276.629 75.2277C276.629 74.1004 276.959 73.1481 277.62 72.3706C278.281 71.5543 279 70.9324 279.778 70.5048C280.866 71.36 282.188 72.0985 283.742 72.7205C285.336 73.3424 287.066 73.6534 288.932 73.6534C290.836 73.6534 292.177 73.3618 292.955 72.7788C293.732 72.1957 294.121 71.5155 294.121 70.7381C294.121 69.9606 293.81 69.3776 293.188 68.9889C292.566 68.5613 291.692 68.1531 290.564 67.7644L288.115 66.9481ZM325.533 59.6015C324.561 59.6015 323.628 59.757 322.734 60.068C321.879 60.3789 321.121 60.8454 320.46 61.4673C319.838 62.0504 319.333 62.7889 318.944 63.683C318.555 64.577 318.361 65.6265 318.361 66.8315C318.361 69.2415 319.041 71.049 320.402 72.254C321.801 73.459 323.492 74.0615 325.474 74.0615C326.641 74.0615 327.651 73.9255 328.506 73.6534C329.361 73.3813 330.119 73.0898 330.78 72.7788C331.558 73.323 332.141 73.9255 332.529 74.5863C332.918 75.2082 333.113 75.9662 333.113 76.8602C333.113 78.4539 332.355 79.6978 330.839 80.5919C329.323 81.447 327.224 81.8746 324.541 81.8746C322.093 81.8746 319.877 81.5248 317.895 80.8251C315.912 80.0865 314.202 79.0759 312.764 77.7931C311.364 76.4715 310.276 74.8973 309.498 73.0703C308.721 71.2434 308.332 69.2221 308.332 67.0064C308.332 64.441 308.74 62.2059 309.557 60.3012C310.412 58.3576 311.559 56.7639 312.997 55.5201C314.435 54.2762 316.087 53.3433 317.953 52.7213C319.858 52.0994 321.859 51.7884 323.958 51.7884C326.757 51.7884 328.914 52.2938 330.43 53.3044C331.946 54.3151 332.704 55.6172 332.704 57.2109C332.704 57.9495 332.529 58.6492 332.18 59.31C331.83 59.9319 331.422 60.4761 330.955 60.9426C330.294 60.6316 329.498 60.3401 328.565 60.068C327.632 59.757 326.621 59.6015 325.533 59.6015ZM366.071 80.9417C365.682 81.0583 365.06 81.1749 364.205 81.2915C363.389 81.4081 362.533 81.4665 361.639 81.4665C360.784 81.4665 360.007 81.4081 359.307 81.2915C358.646 81.1749 358.083 80.9417 357.616 80.5919C357.15 80.242 356.781 79.7756 356.508 79.1925C356.275 78.5706 356.159 77.7737 356.159 76.8019V63.8579C356.159 62.2642 355.75 61.1564 354.934 60.5344C354.157 59.8736 353.185 59.5432 352.019 59.5432C351.241 59.5432 350.503 59.6404 349.803 59.8347C349.104 60.0291 348.54 60.2623 348.112 60.5344V80.9417C347.724 81.0583 347.102 81.1749 346.247 81.2915C345.43 81.4081 344.575 81.4665 343.681 81.4665C342.826 81.4665 342.048 81.4081 341.349 81.2915C340.688 81.1749 340.124 80.9417 339.658 80.5919C339.191 80.242 338.822 79.7756 338.55 79.1925C338.317 78.5706 338.2 77.7737 338.2 76.8019V42.9842C338.628 42.9064 339.25 42.8092 340.066 42.6926C340.921 42.5371 341.776 42.4594 342.632 42.4594C343.487 42.4594 344.245 42.5177 344.905 42.6343C345.605 42.7509 346.188 42.9842 346.655 43.334C347.121 43.6838 347.471 44.1697 347.704 44.7917C347.976 45.3747 348.112 46.1522 348.112 47.1239V52.838C348.618 52.6436 349.376 52.4298 350.386 52.1966C351.436 51.9245 352.582 51.7884 353.826 51.7884C357.675 51.7884 360.668 52.7602 362.806 54.7038C364.982 56.6084 366.071 59.4655 366.071 63.2748V80.9417ZM401.519 66.8315C401.519 69.2415 401.15 71.3989 400.411 73.3035C399.672 75.1694 398.623 76.7436 397.262 78.0264C395.941 79.3091 394.347 80.2809 392.481 80.9417C390.615 81.6025 388.536 81.9329 386.242 81.9329C383.949 81.9329 381.87 81.5831 380.004 80.8834C378.138 80.1837 376.525 79.1925 375.164 77.9098C373.843 76.5881 372.813 74.9944 372.074 73.1286C371.335 71.2628 370.966 69.1638 370.966 66.8315C370.966 64.5381 371.335 62.4585 372.074 60.5927C372.813 58.7269 373.843 57.1526 375.164 55.8699C376.525 54.5483 378.138 53.5376 380.004 52.838C381.87 52.1383 383.949 51.7884 386.242 51.7884C388.536 51.7884 390.615 52.1577 392.481 52.8963C394.347 53.5959 395.941 54.6066 397.262 55.9282C398.623 57.2109 399.672 58.7852 400.411 60.651C401.15 62.5168 401.519 64.577 401.519 66.8315ZM381.112 66.8315C381.112 69.2027 381.559 71.0296 382.453 72.3123C383.385 73.5562 384.668 74.1781 386.301 74.1781C387.933 74.1781 389.177 73.5368 390.032 72.254C390.926 70.9713 391.373 69.1638 391.373 66.8315C391.373 64.4993 390.926 62.7112 390.032 61.4673C389.138 60.1846 387.875 59.5432 386.242 59.5432C384.61 59.5432 383.347 60.1846 382.453 61.4673C381.559 62.7112 381.112 64.4993 381.112 66.8315ZM416.442 80.9417C416.014 81.0194 415.373 81.1166 414.518 81.2332C413.701 81.3887 412.865 81.4665 412.01 81.4665C411.155 81.4665 410.378 81.4081 409.678 81.2915C409.017 81.1749 408.454 80.9417 407.987 80.5919C407.521 80.242 407.151 79.7756 406.879 79.1925C406.646 78.5706 406.53 77.7737 406.53 76.8019V42.9842C406.957 42.9064 407.579 42.8092 408.395 42.6926C409.25 42.5371 410.106 42.4594 410.961 42.4594C411.816 42.4594 412.574 42.5177 413.235 42.6343C413.934 42.7509 414.518 42.9842 414.984 43.334C415.45 43.6838 415.8 44.1697 416.033 44.7917C416.306 45.3747 416.442 46.1522 416.442 47.1239V80.9417ZM434.824 74.7029C435.485 74.7029 436.204 74.6446 436.981 74.528C437.798 74.3725 438.4 74.1781 438.789 73.9449V69.2804L434.591 69.6302C433.503 69.708 432.608 69.9412 431.909 70.3299C431.209 70.7186 430.859 71.3017 430.859 72.0791C430.859 72.8565 431.151 73.4979 431.734 74.0032C432.356 74.4697 433.386 74.7029 434.824 74.7029ZM434.358 51.7884C436.457 51.7884 438.361 52.0022 440.072 52.4298C441.821 52.8574 443.298 53.5182 444.503 54.4122C445.747 55.2674 446.699 56.3752 447.36 57.7357C448.021 59.0573 448.351 60.6316 448.351 62.4585V75.5192C448.351 76.5298 448.06 77.3656 447.477 78.0264C446.932 78.6483 446.272 79.1925 445.494 79.659C442.968 81.1749 439.411 81.9329 434.824 81.9329C432.764 81.9329 430.898 81.7385 429.227 81.3498C427.594 80.9611 426.175 80.3781 424.97 79.6006C423.804 78.8232 422.891 77.832 422.23 76.627C421.608 75.422 421.297 74.0227 421.297 72.4289C421.297 69.7468 422.094 67.6867 423.688 66.2485C425.281 64.8102 427.75 63.9162 431.093 63.5664L438.731 62.7501V62.3419C438.731 61.2147 438.225 60.4178 437.215 59.9514C436.243 59.446 434.824 59.1934 432.958 59.1934C431.481 59.1934 430.043 59.3489 428.644 59.6598C427.244 59.9708 425.981 60.3595 424.854 60.826C424.348 60.4761 423.921 59.9514 423.571 59.2517C423.221 58.5131 423.046 57.7551 423.046 56.9777C423.046 55.9671 423.279 55.1702 423.746 54.5872C424.251 53.9652 425.009 53.4405 426.02 53.0129C427.147 52.5853 428.469 52.2743 429.985 52.08C431.54 51.8856 432.997 51.7884 434.358 51.7884ZM464.324 80.9417C463.935 81.0583 463.313 81.1749 462.458 81.2915C461.642 81.4081 460.787 81.4665 459.893 81.4665C459.038 81.4665 458.26 81.4081 457.56 81.2915C456.9 81.1749 456.336 80.9417 455.87 80.5919C455.403 80.242 455.034 79.7756 454.762 79.1925C454.529 78.5706 454.412 77.7737 454.412 76.8019V59.31C454.412 58.416 454.567 57.658 454.878 57.036C455.228 56.3752 455.714 55.7922 456.336 55.2868C456.958 54.7815 457.716 54.3345 458.61 53.9458C459.543 53.5182 460.534 53.1489 461.584 52.838C462.633 52.527 463.722 52.2938 464.849 52.1383C465.976 51.9439 467.103 51.8468 468.231 51.8468C470.096 51.8468 471.573 52.216 472.662 52.9546C473.75 53.6543 474.294 54.8204 474.294 56.453C474.294 56.9972 474.217 57.5414 474.061 58.0855C473.906 58.5909 473.711 59.0573 473.478 59.4849C472.662 59.4849 471.826 59.5238 470.971 59.6015C470.116 59.6793 469.28 59.7959 468.464 59.9514C467.647 60.1068 466.87 60.2818 466.132 60.4761C465.432 60.6316 464.829 60.826 464.324 61.0592V80.9417ZM502.289 72.5456C502.289 75.4998 501.181 77.8126 498.966 79.484C496.75 81.1555 493.485 81.9912 489.17 81.9912C487.538 81.9912 486.022 81.8746 484.622 81.6414C483.223 81.4081 482.018 81.0583 481.007 80.5919C480.036 80.0865 479.258 79.4646 478.675 78.726C478.131 77.9875 477.859 77.1129 477.859 76.1023C477.859 75.1694 478.053 74.3919 478.442 73.77C478.831 73.1092 479.297 72.565 479.841 72.1374C480.969 72.7593 482.251 73.323 483.69 73.8283C485.167 74.2948 486.858 74.528 488.762 74.528C489.967 74.528 490.881 74.3531 491.503 74.0032C492.163 73.6534 492.494 73.1869 492.494 72.6039C492.494 72.0597 492.261 71.6321 491.794 71.3211C491.328 71.0102 490.55 70.7575 489.462 70.5631L487.713 70.2133C484.331 69.5525 481.804 68.5224 480.133 67.1231C478.5 65.6848 477.684 63.6441 477.684 61.0009C477.684 59.5626 477.995 58.2605 478.617 57.0943C479.239 55.9282 480.113 54.9564 481.241 54.179C482.368 53.4016 483.709 52.7991 485.264 52.3715C486.858 51.9439 488.607 51.7301 490.511 51.7301C491.95 51.7301 493.291 51.8468 494.535 52.08C495.817 52.2743 496.925 52.5853 497.858 53.0129C498.791 53.4405 499.529 54.0041 500.074 54.7038C500.618 55.3646 500.89 56.1614 500.89 57.0943C500.89 57.9884 500.715 58.7658 500.365 59.4266C500.054 60.0485 499.646 60.5733 499.141 61.0009C498.83 60.8065 498.363 60.6122 497.741 60.4178C497.119 60.1846 496.439 59.9902 495.701 59.8347C494.962 59.6404 494.204 59.4849 493.427 59.3683C492.688 59.2517 492.008 59.1934 491.386 59.1934C490.103 59.1934 489.112 59.3489 488.412 59.6598C487.713 59.9319 487.363 60.3789 487.363 61.0009C487.363 61.4285 487.557 61.7783 487.946 62.0504C488.335 62.3225 489.073 62.5751 490.162 62.8084L491.969 63.2165C495.701 64.0717 498.344 65.2572 499.899 66.7732C501.492 68.2503 502.289 70.1744 502.289 72.5456Z" fill="white"/>
</svg>
