<svg width="74" height="101" viewBox="0 0 74 101" fill="none" xmlns="http://www.w3.org/2000/svg">
<path fill-rule="evenodd" clip-rule="evenodd" d="M61.9914 64.8991V90.7631V96.7651C61.9914 98.9742 60.2005 100.765 57.9914 100.765H51.9918H21.5894H15.5914C13.3822 100.765 11.5914 98.9742 11.5914 96.7651V90.7631L11.5914 64.8991L11.5914 50.485C11.5914 47.3305 15.0723 45.4173 17.7354 47.1081L21.5894 49.5551L29.2754 54.4351L34.7931 57.9384C36.1142 58.7772 37.8031 58.7685 39.1155 57.9163L51.9918 49.5551L55.813 47.0738C58.4741 45.3458 61.9914 47.2556 61.9914 50.4286V64.8991ZM51.699 83.8823C51.572 82.8664 50.6959 82.1743 49.6721 82.1743H40.6214L48.6246 75.2935C49.5355 74.5127 50.3326 73.6994 51.0158 72.8535C51.6665 72.0076 51.9918 70.9178 51.9918 69.5839C51.9918 68.9658 51.8942 68.3802 51.699 67.8271C51.5038 67.274 51.211 66.786 50.8206 66.3631C50.4302 65.9076 49.9585 65.5498 49.4054 65.2895C49.2962 65.2381 49.1838 65.1918 49.0682 65.1505C48.1043 64.8065 47.0876 65.2909 46.348 65.9983C46.0224 66.3097 45.6751 66.6428 45.3062 66.9975C44.4603 67.7783 43.5819 68.6079 42.671 69.4863C41.7275 70.3322 40.7678 71.2106 39.7918 72.1215C38.8158 72.9999 37.8723 73.8458 36.9614 74.6591L30.8614 68.5591C29.9179 67.6156 29.0721 66.9324 28.3238 66.5095C27.5755 66.0866 26.7785 65.8751 25.9326 65.8751C24.7939 65.8751 23.8179 66.3631 23.0046 67.3391C22.412 68 22.027 68.9722 21.8496 70.2557C21.6911 71.402 22.2369 72.5088 23.1098 73.2685L33.399 82.2231H25.6398C24.7939 82.2231 24.1107 82.3207 23.5902 82.5159C23.0696 82.7111 22.663 83.0039 22.3702 83.3943C22.0774 83.7847 21.8822 84.2727 21.7846 84.8583C21.6545 85.4114 21.5894 86.062 21.5894 86.8103C21.5894 87.526 21.6545 88.2743 21.7846 89.0551V89.0551C21.9085 90.0466 22.7549 90.7631 23.7541 90.7631H47.795C48.6409 90.7631 49.3241 90.6655 49.8446 90.4703C50.3651 90.2751 50.7718 89.9823 51.0646 89.5919C51.3574 89.2015 51.5526 88.7298 51.6502 88.1767C51.7803 87.5911 51.8454 86.9242 51.8454 86.1759C51.8454 85.4276 51.7966 84.6631 51.699 83.8823V83.8823Z" fill="white"/>
<path d="M34.7931 45.5584C36.1142 46.3972 37.8031 46.3885 39.1155 45.5363L67.935 26.8223C70.3638 25.2452 70.3638 21.6899 67.935 20.1128L39.1155 1.39879C37.8031 0.546548 36.1142 0.537918 34.7931 1.37671L5.31854 20.0907C2.84392 21.6619 2.84392 25.2732 5.31854 26.8444L34.7931 45.5584Z" fill="white"/>
</svg>
